<svg id="svg" version="1.1" xmlns="http://www.w3.org/2000/svg" xmlns:xlink="http://www.w3.org/1999/xlink" width="50" height="77" viewBox="0, 0, 400,617.5"><g id="svgg"><path id="path0" d="M191.875 114.969 C 190.366 115.599,192.347 115.743,196.875 115.334 C 201.000 114.960,204.609 114.451,204.896 114.202 C 205.961 113.277,194.281 113.965,191.875 114.969 M198.190 116.335 C 193.413 116.888,189.073 117.075,188.545 116.748 C 187.543 116.129,177.500 120.836,177.500 121.926 C 177.500 122.270,179.805 121.375,182.621 119.938 C 185.438 118.501,187.936 117.519,188.172 117.755 C 188.408 117.992,185.543 119.786,181.806 121.743 C 178.068 123.700,172.452 127.553,169.325 130.305 C 166.199 133.057,163.370 135.037,163.039 134.706 C 162.708 134.374,165.544 131.705,169.343 128.775 C 176.707 123.093,178.859 120.472,172.359 125.100 C 170.219 126.624,165.297 130.961,161.421 134.737 C 157.546 138.514,155.641 140.593,157.188 139.358 C 161.820 135.660,160.363 139.174,155.339 143.817 C 152.448 146.489,151.614 146.938,153.143 145.000 L 155.607 141.875 152.179 144.905 C 148.756 147.931,147.635 149.586,150.000 148.125 C 150.688 147.700,151.250 147.672,151.250 148.062 C 151.250 149.420,143.562 159.375,142.514 159.375 C 141.933 159.375,140.990 159.887,140.417 160.513 C 139.811 161.174,140.030 161.274,140.938 160.752 C 143.160 159.473,142.873 160.962,140.156 164.807 C 119.173 194.506,112.265 235.271,124.475 257.345 C 127.935 263.601,128.101 264.243,125.938 262.998 C 125.030 262.476,124.811 262.576,125.417 263.237 C 125.990 263.863,127.068 264.375,127.813 264.375 C 128.557 264.375,129.427 265.156,129.745 266.111 C 130.149 267.321,129.801 267.525,128.600 266.784 C 126.021 265.192,134.139 275.062,138.946 279.363 C 142.380 282.435,142.221 282.100,138.056 277.488 C 129.091 267.562,129.127 266.623,138.127 275.625 L 146.875 284.375 126.875 291.274 C 84.181 306.001,79.978 310.371,53.261 367.809 C 43.922 387.885,36.621 402.104,35.884 401.649 C 35.128 401.182,35.001 401.490,35.569 402.410 C 36.113 403.290,34.822 407.652,32.571 412.535 C 26.701 425.269,24.309 438.435,26.249 447.324 C 27.095 451.202,27.949 455.939,28.147 457.850 C 28.344 459.761,29.236 462.293,30.128 463.475 C 33.715 468.230,38.321 472.863,41.875 475.289 C 43.938 476.697,42.813 475.304,39.375 472.194 C 35.938 469.083,32.061 464.645,30.760 462.331 C 28.037 457.489,29.242 458.550,34.298 465.447 C 41.414 475.154,56.751 482.882,79.375 488.160 C 86.250 489.763,90.469 491.159,88.750 491.261 C 86.729 491.382,86.288 491.705,87.500 492.176 C 88.531 492.577,90.080 493.799,90.941 494.890 C 92.308 496.624,92.402 496.559,91.683 494.375 C 91.109 492.633,91.771 493.002,93.867 495.594 C 95.521 497.640,96.875 499.770,96.875 500.328 C 96.875 503.424,105.943 503.697,200.000 503.433 L 299.375 503.155 199.166 502.515 C 144.052 502.163,98.676 501.594,98.333 501.250 C 97.989 500.906,143.257 500.775,198.928 500.959 L 300.149 501.293 303.824 497.618 C 305.846 495.596,307.500 493.145,307.500 492.171 C 307.500 490.951,310.317 489.911,316.563 488.827 C 321.547 487.961,329.742 485.893,334.774 484.231 C 339.806 482.569,344.534 481.587,345.280 482.048 C 346.151 482.587,346.271 482.295,345.613 481.231 C 344.864 480.019,345.164 479.796,346.735 480.398 C 348.180 480.953,348.588 480.749,347.985 479.773 C 347.398 478.824,347.765 478.584,349.048 479.077 C 350.126 479.490,352.046 478.992,353.316 477.970 C 355.442 476.259,355.377 476.223,352.500 477.515 L 349.375 478.918 352.500 476.362 C 356.016 473.486,358.133 472.956,356.692 475.313 C 356.166 476.172,357.638 475.282,359.962 473.334 C 364.296 469.702,371.281 461.509,371.210 460.141 C 371.188 459.720,370.485 460.253,369.648 461.325 C 365.509 466.625,362.775 469.593,359.962 471.839 C 358.264 473.195,359.207 471.789,362.057 468.714 C 377.504 452.052,377.694 436.671,362.854 404.135 C 358.233 394.003,355.165 385.744,355.700 384.879 C 356.252 383.985,356.113 383.687,355.361 384.152 C 354.621 384.609,349.161 374.331,342.355 359.665 C 320.312 312.168,313.954 305.924,273.125 291.682 C 262.813 288.085,254.964 285.110,255.684 285.071 C 256.403 285.032,263.674 287.245,271.841 289.989 C 280.008 292.732,286.894 294.773,287.143 294.523 C 287.393 294.274,280.237 291.561,271.242 288.495 C 262.248 285.429,254.599 283.388,254.245 283.960 C 253.892 284.532,253.212 285.000,252.734 285.000 C 252.256 285.000,256.086 280.633,261.245 275.296 C 276.315 259.706,283.581 242.322,282.064 225.485 C 280.427 207.311,265.612 172.207,251.887 153.980 C 244.760 144.516,243.907 142.993,246.563 144.473 C 247.422 144.952,244.203 141.329,239.409 136.422 C 231.060 127.877,228.942 126.026,230.625 128.750 C 231.930 130.861,229.164 130.133,227.341 127.885 C 225.861 126.061,225.883 125.922,227.500 126.875 C 229.117 127.828,229.139 127.689,227.659 125.865 C 225.802 123.575,224.368 122.965,225.625 125.000 C 226.867 127.010,225.042 126.450,221.023 123.588 C 218.967 122.125,214.662 119.852,211.455 118.538 C 207.484 116.911,206.821 116.376,209.375 116.862 C 212.154 117.391,212.640 117.248,211.250 116.307 C 210.219 115.609,208.813 115.104,208.125 115.183 C 207.438 115.263,202.967 115.781,198.190 116.335 M215.437 127.806 C 245.585 143.764,279.280 205.487,274.933 236.792 C 272.727 252.679,258.930 272.580,242.528 283.532 C 235.387 288.301,234.886 289.467,238.223 293.559 C 238.418 293.798,240.223 293.021,242.234 291.833 C 248.880 287.908,294.362 304.281,308.113 315.548 C 314.342 320.653,324.156 334.639,323.220 337.078 C 322.874 337.981,323.273 338.586,324.107 338.423 C 324.948 338.258,325.584 339.352,325.532 340.875 C 325.482 342.388,325.825 343.388,326.295 343.097 C 327.737 342.206,344.149 378.344,343.084 380.066 C 342.515 380.987,342.622 381.322,343.343 380.876 C 345.048 379.823,353.097 396.773,351.850 398.791 C 351.255 399.753,351.365 400.076,352.127 399.605 C 354.812 397.946,365.657 424.602,366.951 436.042 C 368.311 448.065,359.126 468.750,352.427 468.750 C 351.816 468.750,353.795 466.271,356.825 463.241 C 362.903 457.163,366.366 448.275,366.091 439.461 C 365.962 435.304,365.746 435.819,364.907 442.283 C 363.616 452.233,359.717 460.385,354.259 464.548 C 351.930 466.325,350.321 468.258,350.683 468.845 C 352.033 471.028,326.424 481.386,320.181 481.183 C 319.050 481.146,322.495 479.823,327.836 478.242 C 333.178 476.662,337.959 474.915,338.461 474.360 C 338.964 473.806,338.250 473.777,336.875 474.296 C 335.500 474.815,330.596 476.170,325.976 477.308 C 320.754 478.593,317.427 480.084,317.178 481.250 C 316.958 482.281,316.765 479.457,316.749 474.975 C 316.702 462.290,306.444 446.665,296.528 444.176 C 294.268 443.609,293.699 442.718,293.994 440.209 C 294.382 436.913,319.556 425.365,323.285 426.772 C 324.861 427.367,327.500 425.169,327.500 423.261 C 327.500 422.580,326.797 422.983,325.938 424.156 C 324.534 426.073,324.356 425.961,324.190 423.064 C 323.942 418.747,323.244 418.272,319.795 420.068 L 316.875 421.589 319.905 418.295 C 323.022 414.906,325.842 413.783,324.255 416.563 C 323.765 417.422,325.138 416.473,327.307 414.454 C 331.852 410.222,332.142 408.695,328.953 405.809 C 326.803 403.863,326.511 403.890,324.384 406.240 C 321.596 409.320,319.028 409.599,321.409 406.563 C 322.353 405.359,317.940 409.060,311.603 414.786 C 305.265 420.512,299.500 424.838,298.790 424.400 C 298.081 423.961,297.500 424.548,297.500 425.704 C 297.500 428.328,298.675 427.548,311.474 416.418 C 320.364 408.688,320.322 408.751,310.000 418.627 C 304.156 424.218,298.505 429.304,297.442 429.929 C 295.909 430.831,297.124 422.487,303.319 389.595 C 307.614 366.787,311.156 347.141,311.189 345.938 C 311.247 343.870,305.111 343.750,199.351 343.750 L 87.452 343.750 88.094 346.563 C 88.447 348.109,91.844 366.250,95.643 386.875 C 99.442 407.500,102.891 426.043,103.308 428.082 C 104.029 431.603,103.610 431.384,94.943 423.707 C 80.944 411.307,72.661 403.283,82.272 411.430 C 86.616 415.112,92.241 419.729,94.772 421.690 L 99.375 425.254 94.798 421.065 C 77.956 405.646,75.331 403.720,73.757 405.616 C 72.910 406.637,71.782 407.204,71.250 406.875 C 70.718 406.546,69.516 407.223,68.579 408.379 C 67.128 410.168,67.139 410.321,68.650 409.410 C 69.950 408.626,70.228 408.853,69.688 410.259 C 69.209 411.507,70.338 413.142,72.913 414.931 L 76.875 417.682 73.368 414.466 C 71.439 412.697,70.344 411.250,70.935 411.250 C 71.526 411.250,73.948 413.253,76.317 415.702 C 78.875 418.345,79.706 419.802,78.363 419.289 C 76.685 418.649,75.914 419.140,75.377 421.193 C 74.818 423.332,74.387 423.582,73.481 422.293 C 72.548 420.964,72.408 421.006,72.792 422.500 C 73.066 423.567,80.083 427.068,89.073 430.624 C 107.165 437.780,111.726 443.070,100.807 444.234 C 98.986 444.428,97.075 445.052,96.561 445.619 C 96.046 446.187,96.469 446.171,97.500 445.585 C 99.116 444.667,99.138 444.812,97.659 446.635 C 95.836 448.883,93.070 449.611,94.375 447.500 C 95.798 445.197,94.215 446.218,91.155 449.577 C 89.489 451.406,88.828 452.498,89.687 452.003 C 91.815 450.777,91.674 453.092,89.512 454.886 C 85.831 457.941,82.273 468.844,82.706 475.738 C 83.117 482.272,83.068 482.382,80.000 481.687 C 33.421 471.132,22.323 450.006,41.539 408.467 C 44.403 402.276,47.137 397.900,47.861 398.348 C 48.611 398.811,48.752 398.515,48.205 397.629 C 47.203 396.008,71.186 342.926,78.235 331.162 C 87.846 315.125,99.219 307.791,131.455 296.844 C 154.030 289.177,153.607 289.258,156.949 291.968 C 158.283 293.050,158.585 293.526,157.619 293.025 C 156.463 292.425,156.169 292.608,156.758 293.560 C 157.893 295.396,161.874 293.435,163.007 290.481 C 163.448 289.332,163.655 288.291,163.467 288.166 C 146.745 277.119,130.064 259.895,131.773 255.440 C 132.123 254.527,131.823 253.914,131.106 254.077 C 126.049 255.231,121.920 222.315,126.048 213.750 C 127.535 210.663,127.545 210.670,126.843 214.375 C 126.453 216.438,125.923 222.625,125.666 228.125 L 125.199 238.125 126.377 228.125 C 127.025 222.625,127.721 215.313,127.925 211.875 C 128.906 195.321,146.400 162.724,164.431 143.851 C 184.563 122.779,197.972 118.561,215.437 127.806 M196.354 124.201 C 196.641 124.449,199.406 124.987,202.500 125.396 C 206.256 125.892,207.294 125.772,205.625 125.033 C 203.238 123.976,195.268 123.261,196.354 124.201 M185.374 128.173 C 174.704 133.490,158.194 150.073,149.331 164.375 C 145.812 170.053,147.842 167.802,154.403 158.750 C 165.706 143.156,178.496 131.813,189.728 127.422 C 192.971 126.154,194.751 125.091,193.683 125.058 C 192.615 125.026,188.876 126.428,185.374 128.173 M215.374 130.249 C 224.095 134.980,236.537 147.016,244.560 158.481 C 251.072 167.788,253.473 170.678,251.511 166.847 C 243.961 152.104,217.006 126.163,209.375 126.295 C 208.688 126.307,211.387 128.086,215.374 130.249 M238.750 136.875 C 242.484 140.656,245.258 143.750,244.915 143.750 C 244.571 143.750,241.234 140.656,237.500 136.875 C 233.766 133.094,230.992 130.000,231.335 130.000 C 231.679 130.000,235.016 133.094,238.750 136.875 M253.184 153.750 C 259.910 163.168,261.290 164.693,258.152 159.236 C 256.922 157.097,253.996 153.159,251.649 150.486 C 248.599 147.011,249.037 147.942,253.184 153.750 M145.000 153.750 C 143.531 155.813,142.611 157.500,142.955 157.500 C 143.299 157.500,144.781 155.813,146.250 153.750 C 147.719 151.688,148.639 150.000,148.295 150.000 C 147.951 150.000,146.469 151.688,145.000 153.750 M194.660 152.152 C 196.879 152.428,200.816 152.433,203.410 152.162 C 206.003 151.892,204.188 151.666,199.375 151.660 C 194.563 151.655,192.441 151.876,194.660 152.152 M175.625 155.580 C 170.797 157.790,173.043 157.823,178.750 155.625 C 181.156 154.698,182.281 153.923,181.250 153.901 C 180.219 153.880,177.688 154.635,175.625 155.580 M181.413 156.275 C 176.347 157.616,171.689 158.396,171.063 158.010 C 169.961 157.328,158.750 163.220,158.750 164.480 C 158.750 164.824,161.190 163.675,164.172 161.928 C 167.155 160.180,170.075 158.750,170.661 158.750 C 171.248 158.750,168.458 160.719,164.463 163.125 C 156.483 167.930,155.639 168.251,157.066 165.938 C 157.597 165.078,155.661 166.250,152.765 168.543 C 146.238 173.709,145.821 175.098,152.188 170.469 C 156.567 167.285,156.501 167.425,151.183 172.593 C 148.052 175.636,143.899 180.094,141.953 182.500 C 139.522 185.505,139.063 185.799,140.486 183.438 C 141.625 181.547,142.020 180.000,141.363 180.000 C 139.962 180.000,138.113 184.873,138.589 187.313 C 138.769 188.241,138.324 188.634,137.598 188.186 C 136.769 187.673,136.584 188.167,137.102 189.515 C 137.656 190.961,137.453 191.368,136.477 190.765 C 135.501 190.162,135.297 190.570,135.852 192.015 C 136.370 193.365,136.185 193.857,135.354 193.344 C 134.627 192.894,134.082 193.224,134.142 194.076 C 134.328 196.711,131.007 207.497,130.168 206.983 C 129.732 206.716,129.323 210.098,129.259 214.499 C 129.143 222.485,129.150 222.500,132.697 222.500 C 135.976 222.500,136.250 222.135,136.250 217.763 C 136.250 199.451,150.636 177.238,168.192 168.443 C 209.205 147.896,256.030 169.957,262.718 212.978 C 264.486 224.348,270.000 227.850,270.000 217.602 C 270.000 214.908,270.334 211.674,270.743 210.415 C 271.361 208.510,271.259 208.441,270.137 210.000 C 269.015 211.560,268.785 211.405,268.769 209.076 C 268.759 207.536,267.646 203.371,266.296 199.819 C 264.947 196.267,264.190 192.799,264.614 192.113 C 265.085 191.351,264.740 191.263,263.731 191.887 C 262.519 192.636,262.296 192.336,262.898 190.765 C 263.453 189.320,263.249 188.912,262.273 189.515 C 261.297 190.118,261.094 189.711,261.648 188.265 C 262.101 187.085,261.963 186.434,261.342 186.818 C 260.722 187.202,259.015 185.577,257.551 183.207 C 251.340 173.159,227.089 156.452,218.293 156.162 C 216.075 156.089,215.984 155.931,217.753 155.225 C 223.418 152.962,190.317 153.919,181.413 156.275 M225.104 156.725 C 226.379 157.887,238.750 163.727,238.750 163.167 C 238.750 162.462,226.813 156.250,225.458 156.250 C 224.977 156.250,224.818 156.464,225.104 156.725 M218.750 165.625 C 224.457 167.823,226.703 167.790,221.875 165.580 C 219.813 164.635,217.281 163.880,216.250 163.901 C 215.219 163.923,216.344 164.698,218.750 165.625 M245.260 168.605 C 248.497 171.492,253.445 176.503,256.257 179.740 C 260.105 184.171,260.995 184.776,259.858 182.188 C 259.028 180.297,257.783 178.750,257.091 178.750 C 256.399 178.750,256.186 178.397,256.617 177.967 C 257.416 177.167,254.206 170.000,253.049 170.000 C 252.699 170.000,252.994 171.088,253.706 172.418 C 256.137 176.959,255.001 176.772,249.688 171.753 C 246.766 168.994,243.250 165.975,241.875 165.045 C 240.500 164.115,242.023 165.717,245.260 168.605 M167.500 170.080 C 160.235 174.080,152.776 180.645,148.417 186.875 C 146.974 188.938,149.131 187.094,153.210 182.779 C 157.709 178.018,163.820 173.236,168.750 170.620 C 173.219 168.248,176.313 166.304,175.625 166.301 C 174.938 166.298,171.281 167.999,167.500 170.080 M130.560 177.628 C 128.101 182.511,126.293 186.710,126.542 186.959 C 126.792 187.208,129.073 183.213,131.612 178.081 C 134.152 172.949,135.960 168.750,135.630 168.750 C 135.301 168.750,133.020 172.745,130.560 177.628 M144.375 172.500 C 143.308 174.563,142.872 176.259,143.405 176.269 C 143.939 176.280,143.612 176.772,142.679 177.363 C 141.746 177.954,141.465 178.731,142.054 179.090 C 142.643 179.449,144.205 178.302,145.526 176.540 C 146.847 174.779,147.269 173.746,146.464 174.243 C 144.656 175.360,144.600 174.333,146.294 171.168 C 147.006 169.838,147.301 168.750,146.951 168.750 C 146.601 168.750,145.442 170.438,144.375 172.500 M267.760 178.085 C 269.953 182.532,271.953 185.963,272.205 185.711 C 272.764 185.152,265.206 170.000,264.369 170.000 C 264.041 170.000,265.567 173.638,267.760 178.085 M236.875 173.902 C 243.371 178.818,249.891 186.149,253.750 192.878 C 255.800 196.451,257.482 198.736,257.488 197.955 C 257.528 193.201,242.173 175.463,235.000 171.976 C 233.969 171.475,234.813 172.341,236.875 173.902 M275.717 196.250 C 276.176 197.969,277.074 200.219,277.711 201.250 C 278.516 202.553,278.614 202.172,278.033 200.000 C 277.574 198.281,276.676 196.031,276.039 195.000 C 275.234 193.697,275.136 194.078,275.717 196.250 M119.429 205.065 C 117.681 210.600,116.280 216.084,116.317 217.252 C 116.354 218.420,117.655 215.156,119.209 210.000 C 120.763 204.844,122.458 199.359,122.976 197.813 C 123.495 196.266,123.624 195.000,123.264 195.000 C 122.903 195.000,121.178 199.529,119.429 205.065 M150.938 201.326 C 147.025 205.190,146.276 206.755,146.406 210.790 L 146.563 215.625 147.455 210.111 C 148.344 204.610,154.203 197.494,157.832 197.505 C 158.681 197.507,157.583 198.602,155.392 199.938 C 144.989 206.281,147.161 223.028,159.137 228.815 C 162.061 230.228,161.485 229.638,155.000 224.586 C 153.969 223.782,152.281 222.000,151.250 220.625 C 150.219 219.250,151.679 220.155,154.496 222.636 C 164.762 231.680,186.065 234.491,192.858 227.698 C 195.940 224.616,196.051 214.945,193.056 210.356 C 190.837 206.954,190.752 205.803,192.813 207.041 C 193.716 207.584,193.584 206.997,192.500 205.651 C 190.313 202.936,180.118 196.245,178.193 196.262 C 177.468 196.268,179.788 197.944,183.348 199.986 C 186.908 202.027,190.244 204.383,190.761 205.220 C 191.278 206.057,189.945 205.491,187.798 203.962 C 175.693 195.343,158.257 194.096,150.938 201.326 M221.471 197.637 C 222.284 198.139,221.764 198.815,220.176 199.319 C 218.717 199.782,216.941 199.802,216.230 199.363 C 215.520 198.924,215.093 199.239,215.282 200.063 C 215.470 200.888,214.844 201.846,213.889 202.193 C 212.719 202.618,212.452 202.261,213.070 201.100 C 213.575 200.151,211.403 202.014,208.244 205.240 C 205.085 208.465,202.502 211.840,202.505 212.740 C 202.507 213.639,203.552 212.688,204.826 210.625 C 206.100 208.563,208.488 205.759,210.134 204.395 C 212.698 202.268,212.646 202.446,209.767 205.645 C 201.201 215.161,203.992 232.526,214.082 232.495 C 214.931 232.493,213.938 231.459,211.875 230.198 C 209.813 228.937,207.298 226.830,206.288 225.515 C 204.867 223.667,205.151 223.744,207.538 225.854 C 217.482 234.646,235.439 232.637,246.106 221.540 C 248.961 218.570,249.878 218.011,248.628 220.000 C 247.549 221.719,243.978 224.953,240.692 227.188 C 237.406 229.422,235.259 231.250,235.921 231.250 C 237.730 231.250,246.984 224.285,249.000 221.406 C 251.743 217.490,251.044 206.897,247.816 203.461 C 246.350 201.901,244.977 200.109,244.763 199.478 C 244.322 198.175,240.511 197.627,228.493 197.138 C 223.883 196.950,220.723 197.175,221.471 197.637 M140.145 202.623 C 139.378 204.823,138.788 207.523,138.834 208.624 C 138.880 209.725,139.699 208.116,140.654 205.050 C 142.654 198.631,142.234 196.630,140.145 202.623 M249.588 203.750 C 250.318 204.781,251.556 207.313,252.340 209.375 L 253.765 213.125 253.050 209.375 C 252.657 207.313,251.419 204.781,250.299 203.750 C 248.488 202.083,248.409 202.083,249.588 203.750 M177.823 205.579 C 182.794 207.657,188.750 214.100,188.750 217.402 C 188.750 227.684,165.072 226.668,157.155 216.046 C 150.313 206.866,164.141 199.863,177.823 205.579 M240.972 205.696 C 244.560 208.209,244.643 214.107,241.139 217.611 C 228.405 230.345,203.855 224.864,213.291 211.393 C 217.915 204.791,234.737 201.329,240.972 205.696 M259.570 208.125 C 259.989 210.875,260.538 213.359,260.791 213.646 C 261.738 214.720,261.029 208.025,259.942 205.625 C 259.152 203.883,259.040 204.640,259.570 208.125 M278.926 205.000 C 278.926 206.031,279.409 208.000,280.000 209.375 C 280.677 210.951,281.074 211.182,281.074 210.000 C 281.074 208.969,280.591 207.000,280.000 205.625 C 279.323 204.049,278.926 203.818,278.926 205.000 M164.063 205.895 C 165.953 206.182,169.047 206.182,170.938 205.895 C 172.828 205.609,171.281 205.375,167.500 205.375 C 163.719 205.375,162.172 205.609,164.063 205.895 M232.234 206.129 C 237.193 206.601,240.529 207.568,241.277 208.751 C 242.017 209.922,242.469 210.056,242.481 209.106 C 242.513 206.539,237.982 204.991,231.020 205.191 L 224.375 205.381 232.234 206.129 M157.750 207.750 C 151.331 214.169,166.250 225.085,179.088 223.363 C 184.907 222.583,187.555 220.549,187.330 217.034 C 187.171 214.556,187.122 214.571,186.609 217.255 C 185.043 225.445,162.458 223.012,158.453 214.222 C 157.357 211.816,157.372 210.492,158.518 208.657 C 160.232 205.912,159.937 205.563,157.750 207.750 M218.469 208.199 C 215.095 210.029,211.730 214.647,212.910 215.826 C 213.246 216.163,213.895 215.264,214.350 213.828 C 214.806 212.393,217.248 210.125,219.777 208.789 C 222.306 207.453,223.813 206.358,223.125 206.355 C 222.438 206.352,220.342 207.182,218.469 208.199 M194.551 210.000 C 195.093 211.031,195.909 214.125,196.362 216.875 L 197.187 221.875 197.344 217.426 C 197.430 214.980,196.615 211.886,195.532 210.551 C 194.450 209.217,194.008 208.969,194.551 210.000 M137.840 216.250 C 137.840 219.344,138.084 220.609,138.382 219.063 C 138.680 217.516,138.680 214.984,138.382 213.438 C 138.084 211.891,137.840 213.156,137.840 216.250 M240.197 215.148 C 239.327 216.542,236.254 218.754,233.370 220.064 C 230.485 221.374,228.856 222.457,229.750 222.473 C 233.525 222.536,243.981 214.814,242.341 213.174 C 242.033 212.866,241.068 213.754,240.197 215.148 M282.070 216.875 C 282.489 219.625,283.038 222.109,283.291 222.396 C 284.238 223.470,283.529 216.775,282.442 214.375 C 281.652 212.633,281.540 213.390,282.070 216.875 M271.499 216.875 C 271.499 218.938,271.950 222.031,272.500 223.750 C 273.473 226.789,273.501 226.771,273.501 223.125 C 273.501 221.063,273.050 217.969,272.500 216.250 C 271.527 213.211,271.499 213.229,271.499 216.875 M201.269 216.979 C 201.280 218.297,201.859 220.219,202.557 221.250 C 203.484 222.619,203.600 222.114,202.987 219.375 C 201.959 214.779,201.244 213.781,201.269 216.979 M212.500 219.777 C 212.500 221.744,219.456 223.961,223.914 223.415 C 227.957 222.921,227.924 222.892,223.091 222.700 C 220.322 222.590,216.806 221.624,215.278 220.554 C 213.750 219.484,212.500 219.134,212.500 219.777 M115.437 230.000 C 115.437 235.844,115.652 238.234,115.915 235.313 C 116.178 232.391,116.178 227.609,115.915 224.688 C 115.652 221.766,115.437 224.156,115.437 230.000 M193.765 224.971 C 193.038 226.331,191.215 228.100,189.713 228.903 C 187.560 230.056,187.764 229.547,190.680 226.492 C 195.053 221.910,195.529 221.675,193.765 224.971 M283.955 228.125 C 283.827 230.875,283.456 235.375,283.130 238.125 L 282.538 243.125 283.820 238.125 C 284.525 235.375,284.896 230.875,284.644 228.125 L 284.187 223.125 283.955 228.125 M165.625 231.831 C 169.563 233.728,182.096 234.365,184.572 232.793 C 185.368 232.288,181.993 231.875,177.072 231.875 C 172.151 231.875,166.719 231.459,165.000 230.950 C 162.636 230.250,162.789 230.465,165.625 231.831 M219.710 233.406 C 221.957 233.684,225.332 233.678,227.210 233.393 C 229.088 233.108,227.250 232.880,223.125 232.887 C 219.000 232.894,217.463 233.128,219.710 233.406 M272.683 235.625 C 272.564 237.688,272.176 240.781,271.823 242.500 L 271.179 245.625 272.524 242.544 C 273.263 240.849,273.650 237.755,273.384 235.669 L 272.900 231.875 272.683 235.625 M126.334 240.126 C 126.237 242.427,128.826 250.341,129.465 249.701 C 129.700 249.467,129.110 246.766,128.154 243.700 C 127.199 240.634,126.380 239.025,126.334 240.126 M118.750 250.466 C 118.750 251.816,123.715 261.250,124.426 261.250 C 124.770 261.250,123.845 258.859,122.372 255.938 C 119.474 250.191,118.750 249.098,118.750 250.466 M277.119 255.641 C 275.976 258.038,275.298 260.000,275.613 260.000 C 276.468 260.000,280.263 252.346,279.691 251.775 C 279.420 251.503,278.263 253.243,277.119 255.641 M261.470 262.476 C 256.818 269.072,248.309 277.166,238.718 284.117 C 235.744 286.273,235.789 286.273,239.905 284.117 C 245.233 281.326,262.342 264.489,265.383 259.044 C 268.837 252.859,267.303 254.204,261.470 262.476 M134.574 259.660 C 135.774 261.879,140.705 267.504,145.532 272.160 L 154.307 280.625 145.559 271.250 C 140.748 266.094,135.817 260.469,134.601 258.750 C 132.478 255.747,132.477 255.783,134.574 259.660 M271.795 264.688 C 270.562 266.578,266.701 271.265,263.214 275.103 C 257.557 281.330,257.706 281.238,264.600 274.246 C 268.849 269.937,272.947 265.250,273.707 263.830 C 275.711 260.087,274.419 260.666,271.795 264.688 M157.500 282.432 C 159.219 283.872,161.891 286.122,163.438 287.431 C 164.984 288.740,166.250 289.318,166.250 288.715 C 166.250 288.113,163.578 285.863,160.313 283.717 C 157.047 281.570,155.781 280.991,157.500 282.432 M125.859 288.979 C 119.801 291.059,115.060 292.977,115.324 293.241 C 115.589 293.505,121.390 291.802,128.215 289.456 C 135.041 287.109,139.781 285.191,138.750 285.194 C 137.719 285.196,131.918 286.899,125.859 288.979 M234.923 292.118 C 236.745 295.845,238.679 296.845,240.421 294.958 C 241.548 293.737,241.485 293.606,240.141 294.371 C 239.003 295.020,237.578 294.332,235.995 292.367 C 233.797 289.642,233.702 289.620,234.923 292.118 M142.500 294.375 C 131.741 298.255,134.370 298.282,146.250 294.414 C 151.406 292.735,154.500 291.381,153.125 291.404 C 151.750 291.426,146.969 292.764,142.500 294.375 M243.318 292.188 C 242.999 292.703,244.232 293.163,246.057 293.209 C 247.882 293.255,251.063 293.682,253.125 294.158 C 256.472 294.930,256.405 294.830,252.500 293.231 C 247.532 291.197,244.167 290.815,243.318 292.188 M288.854 295.477 C 290.128 296.643,305.000 303.721,305.000 303.161 C 305.000 302.460,290.559 295.000,289.202 295.000 C 288.724 295.000,288.568 295.215,288.854 295.477 M100.938 298.835 C 98.359 300.196,96.250 301.589,96.250 301.930 C 96.250 302.487,106.123 297.873,107.396 296.721 C 108.834 295.420,105.079 296.648,100.938 298.835 M268.750 299.375 C 274.457 301.573,276.703 301.540,271.875 299.330 C 269.813 298.385,267.281 297.630,266.250 297.651 C 265.219 297.673,266.344 298.448,268.750 299.375 M116.875 303.169 C 113.749 304.675,113.645 304.848,116.250 304.211 C 119.792 303.346,123.773 301.316,121.875 301.344 C 121.188 301.354,118.938 302.176,116.875 303.169 M87.555 307.574 C 78.252 314.928,59.791 342.326,60.039 348.410 C 60.061 348.941,62.733 344.292,65.977 338.080 C 73.468 323.734,79.929 314.958,87.300 309.116 C 95.264 302.805,95.607 302.500,94.737 302.500 C 94.318 302.500,91.086 304.783,87.555 307.574 M178.152 304.900 C 178.896 306.209,178.625 306.470,177.120 305.892 C 174.788 304.997,173.250 306.891,173.250 310.658 C 173.250 312.933,181.975 322.005,196.539 334.874 L 199.932 337.872 214.400 324.378 L 228.868 310.885 225.463 307.330 C 222.316 304.046,220.625 303.671,220.625 306.257 C 220.625 306.834,215.981 311.620,210.304 316.894 L 199.983 326.483 192.804 320.234 C 188.856 316.797,183.938 312.131,181.875 309.865 C 179.813 307.599,183.025 310.126,189.013 315.481 L 199.901 325.217 209.260 316.359 C 214.408 311.486,218.272 307.500,217.847 307.500 C 217.423 307.500,213.202 311.240,208.467 315.810 L 199.860 324.120 194.617 319.258 C 179.761 305.481,177.226 303.270,178.152 304.900 M310.908 308.031 C 313.813 310.576,318.523 315.294,321.374 318.516 C 324.226 321.739,325.410 322.688,324.006 320.625 C 321.312 316.667,312.341 307.880,308.125 305.070 C 306.750 304.153,308.002 305.486,310.908 308.031 M102.144 309.596 C 93.602 314.152,82.969 324.300,79.297 331.401 C 76.489 336.830,77.855 335.727,82.194 329.063 C 87.790 320.467,93.377 315.547,103.862 309.982 C 108.957 307.278,112.563 305.067,111.875 305.069 C 111.188 305.071,106.809 307.108,102.144 309.596 M214.179 323.394 C 206.724 330.417,200.146 336.023,199.560 335.852 C 197.820 335.342,174.024 313.174,174.568 312.570 C 174.843 312.265,178.569 315.367,182.847 319.464 C 187.125 323.561,192.697 328.807,195.230 331.121 L 199.834 335.330 213.011 323.025 L 226.188 310.720 223.407 307.548 L 220.625 304.375 224.179 307.500 L 227.734 310.625 214.179 323.394 M303.750 314.579 C 310.135 319.734,314.758 324.920,318.332 330.938 C 322.403 337.791,323.556 337.867,319.767 331.032 C 316.549 325.226,306.445 314.552,302.154 312.425 C 300.626 311.667,301.344 312.637,303.750 314.579 M332.835 337.081 C 336.432 344.069,339.551 349.612,339.766 349.398 C 340.314 348.854,330.633 329.920,328.250 326.875 C 327.175 325.500,329.238 330.093,332.835 337.081 M74.315 340.116 C 73.215 342.243,72.538 344.204,72.809 344.475 C 73.080 344.747,74.237 343.007,75.381 340.609 C 77.951 335.218,77.061 334.806,74.315 340.116 M144.062 342.187 C 174.828 342.373,225.172 342.373,255.937 342.187 C 286.703 342.001,261.531 341.849,200.000 341.849 C 138.469 341.849,113.297 342.001,144.062 342.187 M326.368 345.625 C 326.368 346.313,328.002 349.969,330.000 353.750 C 331.998 357.531,333.632 360.063,333.632 359.375 C 333.632 358.688,331.998 355.031,330.000 351.250 C 328.002 347.469,326.368 344.938,326.368 345.625 M68.986 351.936 C 65.220 359.687,65.640 360.772,69.519 353.315 C 71.253 349.982,72.458 347.042,72.197 346.780 C 71.935 346.519,70.490 348.839,68.986 351.936 M292.450 411.370 C 286.217 444.648,280.841 473.000,280.502 474.375 C 279.894 476.843,278.847 476.875,199.537 476.875 L 119.188 476.875 107.666 415.000 C 101.330 380.969,96.169 352.703,96.198 352.188 C 96.226 351.672,142.516 351.387,199.063 351.555 L 301.875 351.860 199.688 352.187 C 103.411 352.496,97.506 352.641,97.599 354.695 C 97.658 356.001,97.950 356.249,98.328 355.313 C 98.825 354.080,120.482 353.750,200.729 353.750 C 294.882 353.750,302.500 353.594,302.500 351.667 C 302.500 350.521,302.788 349.872,303.141 350.224 C 303.493 350.577,298.682 378.092,292.450 411.370 M340.118 351.875 C 340.118 352.563,341.752 356.219,343.750 360.000 C 345.748 363.781,347.382 366.313,347.382 365.625 C 347.382 364.938,345.748 361.281,343.750 357.500 C 341.752 353.719,340.118 351.188,340.118 351.875 M55.236 358.186 C 51.470 365.937,51.890 367.022,55.769 359.565 C 57.503 356.232,58.708 353.292,58.447 353.030 C 58.185 352.769,56.740 355.089,55.236 358.186 M60.868 369.438 C 56.279 378.795,56.702 379.904,61.393 370.812 C 63.469 366.791,64.957 363.291,64.702 363.035 C 64.446 362.779,62.721 365.660,60.868 369.438 M335.113 364.375 C 335.113 365.063,336.468 368.156,338.125 371.250 C 339.782 374.344,341.137 376.313,341.137 375.625 C 341.137 374.938,339.782 371.844,338.125 368.750 C 336.468 365.656,335.113 363.688,335.113 364.375 M47.118 375.688 C 42.529 385.045,42.952 386.154,47.643 377.062 C 49.719 373.041,51.207 369.541,50.952 369.285 C 50.696 369.029,48.971 371.910,47.118 375.688 M348.863 370.625 C 348.863 371.313,350.218 374.406,351.875 377.500 C 353.532 380.594,354.887 382.563,354.887 381.875 C 354.887 381.188,353.532 378.094,351.875 375.000 C 350.218 371.906,348.863 369.938,348.863 370.625 M52.736 386.936 C 48.970 394.687,49.390 395.772,53.269 388.315 C 55.003 384.982,56.208 382.042,55.947 381.780 C 55.685 381.519,54.240 383.839,52.736 386.936 M343.863 383.125 C 343.863 383.813,345.218 386.906,346.875 390.000 C 348.532 393.094,349.887 395.063,349.887 394.375 C 349.887 393.688,348.532 390.594,346.875 387.500 C 345.218 384.406,343.863 382.438,343.863 383.125 M38.986 393.186 C 35.220 400.937,35.640 402.022,39.519 394.565 C 41.253 391.232,42.458 388.292,42.197 388.030 C 41.935 387.769,40.490 390.089,38.986 393.186 M357.613 389.375 C 357.613 390.063,358.968 393.156,360.625 396.250 C 362.282 399.344,363.637 401.313,363.637 400.625 C 363.637 399.938,362.282 396.844,360.625 393.750 C 358.968 390.656,357.613 388.688,357.613 389.375 M43.986 405.686 C 40.220 413.437,40.640 414.522,44.519 407.065 C 46.253 403.732,47.458 400.792,47.197 400.530 C 46.935 400.269,45.490 402.589,43.986 405.686 M352.613 401.875 C 352.613 402.563,353.968 405.656,355.625 408.750 C 357.282 411.844,358.637 413.813,358.637 413.125 C 358.637 412.438,357.282 409.344,355.625 406.250 C 353.968 403.156,352.613 401.188,352.613 401.875 M330.000 409.334 C 330.000 410.175,328.734 411.934,327.188 413.244 L 324.375 415.625 326.820 412.743 C 328.964 410.214,329.055 409.524,327.556 407.118 C 325.998 404.615,326.030 404.525,327.924 406.091 C 329.066 407.034,330.000 408.494,330.000 409.334 M365.113 405.625 C 365.113 406.313,366.468 409.406,368.125 412.500 C 369.782 415.594,371.137 417.563,371.137 416.875 C 371.137 416.188,369.782 413.094,368.125 410.000 C 366.468 406.906,365.113 404.938,365.113 405.625 M30.849 410.683 C 27.913 416.841,28.326 417.889,31.396 412.070 C 32.790 409.427,33.710 407.043,33.439 406.773 C 33.169 406.502,32.003 408.262,30.849 410.683 M25.673 423.977 C 24.616 427.539,23.795 431.899,23.849 433.664 C 23.904 435.430,24.697 433.500,25.611 429.375 C 26.526 425.250,27.666 420.891,28.146 419.688 C 28.625 418.484,28.698 417.500,28.307 417.500 C 27.916 417.500,26.731 420.415,25.673 423.977 M360.197 418.125 C 360.193 418.813,360.948 421.344,361.875 423.750 C 362.802 426.156,363.577 427.281,363.599 426.250 C 363.620 425.219,362.865 422.688,361.920 420.625 C 360.976 418.563,360.200 417.438,360.197 418.125 M99.650 423.704 C 99.284 425.104,99.861 426.849,100.994 427.767 C 102.668 429.122,102.800 429.081,101.834 427.500 C 101.203 426.469,100.849 424.641,101.047 423.438 C 101.538 420.453,100.445 420.661,99.650 423.704 M372.712 423.750 C 372.776 426.998,374.744 432.333,374.788 429.375 C 374.808 428.000,374.341 425.750,373.750 424.375 C 373.092 422.843,372.690 422.601,372.712 423.750 M34.540 430.113 C 34.105 432.285,33.833 437.508,33.934 441.719 C 34.100 448.635,34.207 448.288,35.036 438.125 C 36.007 426.232,35.844 423.595,34.540 430.113 M375.224 439.375 C 375.082 443.500,374.676 448.281,374.323 450.000 L 373.679 453.125 375.018 450.060 C 375.754 448.374,376.159 443.593,375.919 439.435 L 375.482 431.875 375.224 439.375 M101.044 438.247 C 103.756 440.146,103.785 440.326,101.635 441.935 C 99.538 443.504,99.578 443.575,102.188 442.917 C 106.192 441.908,104.024 436.250,99.633 436.250 C 98.841 436.250,99.477 437.149,101.044 438.247 M295.000 439.799 C 295.000 441.114,296.471 442.734,298.438 443.584 L 301.875 445.069 298.883 442.706 C 297.217 441.390,296.280 439.713,296.769 438.922 C 297.252 438.140,297.052 437.500,296.324 437.500 C 295.596 437.500,295.000 438.535,295.000 439.799 M306.875 450.000 C 309.560 452.750,312.039 455.000,312.382 455.000 C 312.726 455.000,310.810 452.750,308.125 450.000 C 305.440 447.250,302.961 445.000,302.618 445.000 C 302.274 445.000,304.190 447.250,306.875 450.000 M109.918 462.997 C 111.364 470.490,112.255 476.912,111.898 477.268 C 111.542 477.625,111.250 476.979,111.250 475.833 C 111.250 474.286,110.205 473.788,107.188 473.898 L 103.125 474.046 106.875 475.000 L 110.625 475.954 107.147 476.102 C 102.324 476.307,95.115 479.496,94.224 481.819 C 93.128 484.675,90.402 484.162,89.538 480.938 C 86.696 470.335,92.510 457.508,103.067 451.088 C 107.614 448.323,106.821 446.944,109.918 462.997 M35.027 451.020 C 34.953 455.475,44.201 466.430,50.625 469.496 C 52.688 470.480,53.295 470.574,51.974 469.705 C 45.848 465.674,39.406 458.928,37.332 454.375 C 36.080 451.625,35.043 450.115,35.027 451.020 M296.875 451.969 C 296.875 453.946,304.052 461.211,305.265 460.461 C 307.133 459.307,310.003 468.525,309.875 475.272 C 309.783 480.147,309.517 481.057,308.856 478.750 L 307.961 475.625 307.279 479.063 C 306.889 481.026,307.148 482.500,307.882 482.500 C 308.588 482.500,308.786 482.881,308.320 483.346 C 307.855 483.812,305.886 482.671,303.945 480.812 C 301.412 478.385,298.594 477.216,293.958 476.667 C 290.406 476.246,287.491 475.558,287.480 475.138 C 287.276 467.332,292.038 449.933,294.290 450.255 C 295.712 450.459,296.875 451.230,296.875 451.969 M99.611 455.313 C 97.355 457.547,96.942 458.185,98.692 456.730 C 100.443 455.275,103.000 453.464,104.375 452.705 C 105.750 451.947,106.164 451.309,105.294 451.288 C 104.425 451.267,101.867 453.078,99.611 455.313 M302.495 455.620 C 306.638 460.029,305.122 460.480,300.859 456.107 C 298.925 454.123,297.843 452.500,298.454 452.500 C 299.064 452.500,300.883 453.904,302.495 455.620 M106.546 456.250 C 106.546 457.969,106.975 461.063,107.500 463.125 C 108.351 466.470,108.454 466.538,108.454 463.750 C 108.454 462.031,108.025 458.938,107.500 456.875 C 106.649 453.530,106.546 453.462,106.546 456.250 M280.086 464.063 L 278.396 473.750 199.927 473.750 C 138.322 473.750,121.323 473.414,120.828 472.188 C 120.453 471.258,120.157 471.514,120.099 472.822 C 120.005 474.899,124.344 475.001,199.631 474.697 L 279.263 474.375 280.910 466.250 C 281.816 461.781,282.381 457.281,282.166 456.250 C 281.951 455.219,281.015 458.734,280.086 464.063 M314.619 460.609 C 315.763 463.007,316.920 464.747,317.191 464.475 C 317.763 463.904,313.968 456.250,313.113 456.250 C 312.798 456.250,313.476 458.212,314.619 460.609 M81.395 465.123 C 80.628 467.323,80.000 471.248,80.000 473.845 C 80.000 477.291,79.409 478.721,77.813 479.138 C 76.166 479.569,76.321 479.746,78.438 479.855 C 80.953 479.985,81.250 479.415,81.250 474.456 C 81.250 471.407,81.828 467.392,82.535 465.533 C 83.242 463.674,83.588 461.921,83.304 461.638 C 83.021 461.354,82.162 462.923,81.395 465.123 M92.463 463.819 C 91.707 465.232,91.273 466.944,91.499 467.623 C 91.726 468.303,92.557 467.146,93.347 465.054 C 94.989 460.703,94.498 460.017,92.463 463.819 M290.000 465.469 C 290.000 466.414,289.648 468.945,289.219 471.094 C 288.462 474.876,288.572 474.994,292.656 474.813 C 296.440 474.645,296.521 474.572,293.436 474.105 C 290.190 473.613,290.041 473.308,290.783 468.667 C 291.216 465.963,291.216 463.750,290.785 463.750 C 290.353 463.750,290.000 464.523,290.000 465.469 M307.056 468.750 C 308.046 474.141,308.756 475.158,308.731 471.146 C 308.720 469.484,308.159 467.281,307.483 466.250 C 306.618 464.931,306.491 465.672,307.056 468.750 M343.750 471.250 C 341.344 472.567,339.825 473.669,340.375 473.698 C 341.699 473.767,348.750 470.101,348.750 469.343 C 348.750 468.525,348.677 468.553,343.750 471.250 M90.340 475.000 C 90.340 478.094,90.584 479.359,90.882 477.813 C 91.180 476.266,91.180 473.734,90.882 472.188 C 90.584 470.641,90.340 471.906,90.340 475.000 M95.272 478.438 C 93.337 480.328,92.907 480.924,94.315 479.763 C 95.724 478.601,98.282 477.090,100.001 476.404 C 102.152 475.547,102.450 475.134,100.957 475.079 C 99.765 475.036,97.207 476.547,95.272 478.438 M300.309 476.807 C 302.198 477.792,304.448 478.962,305.309 479.407 C 306.170 479.853,305.469 479.056,303.750 477.636 C 302.031 476.217,299.781 475.047,298.750 475.035 C 297.719 475.024,298.420 475.821,300.309 476.807 M46.250 478.291 C 46.250 479.133,62.525 486.642,63.101 486.066 C 63.364 485.803,59.680 483.813,54.914 481.644 C 50.149 479.475,46.250 477.966,46.250 478.291 M299.750 485.250 C 302.046 487.546,301.535 492.260,298.832 493.706 C 295.134 495.685,102.235 495.485,100.250 493.500 C 98.646 491.896,98.202 485.964,99.583 484.583 C 101.208 482.959,298.115 483.615,299.750 485.250 M100.818 485.938 C 100.499 486.453,144.943 486.728,199.583 486.548 L 298.928 486.220 298.526 489.048 L 298.125 491.875 199.125 491.875 C 144.675 491.875,100.550 492.300,101.070 492.820 C 101.590 493.340,146.079 493.621,199.934 493.445 C 305.318 493.101,302.018 493.312,299.613 487.045 C 298.773 484.855,102.164 483.760,100.818 485.938 M66.875 487.500 C 68.250 488.091,70.219 488.574,71.250 488.574 C 72.432 488.574,72.201 488.177,70.625 487.500 C 69.250 486.909,67.281 486.426,66.250 486.426 C 65.068 486.426,65.299 486.823,66.875 487.500 M76.250 490.000 C 77.969 490.550,80.781 490.990,82.500 490.978 C 85.307 490.957,85.243 490.857,81.875 490.000 C 76.587 488.655,72.049 488.655,76.250 490.000 M311.622 490.874 C 310.107 491.168,308.530 492.473,308.117 493.774 C 307.704 495.076,305.666 497.571,303.587 499.320 C 301.509 501.069,300.370 502.500,301.057 502.500 C 301.743 502.500,304.222 500.261,306.564 497.525 C 309.459 494.143,312.391 492.182,315.724 491.400 C 320.654 490.244,317.173 489.798,311.622 490.874 " stroke="none" fill="#000000" fill-rule="evenodd"></path></g></svg>
